<?xml version="1.0" standalone="no"?>
<!DOCTYPE svg PUBLIC "-//W3C//DTD SVG 20010904//EN"
 "http://www.w3.org/TR/2001/REC-SVG-20010904/DTD/svg10.dtd">
<svg version="1.0" xmlns="http://www.w3.org/2000/svg"
 width="626.000000pt" height="626.000000pt" viewBox="0 0 626.000000 626.000000"
 preserveAspectRatio="xMidYMid meet">

<g transform="translate(0.000000,626.000000) scale(0.100000,-0.100000)"
fill="#000000" stroke="none">
<path d="M350 6248 c0 -4 4 -8 9 -8 6 0 12 4 15 8 3 5 -1 9 -9 9 -8 0 -15 -4
-15 -9z"/>
<path d="M702 6238 c-14 -14 -16 -42 -3 -34 7 5 23 46 17 46 -1 0 -7 -5 -14
-12z"/>
<path d="M730 6240 c0 -5 5 -10 11 -10 5 0 7 5 4 10 -3 6 -8 10 -11 10 -2 0
-4 -4 -4 -10z"/>
<path d="M768 6221 c11 -7 10 -9 -3 -15 -18 -6 -12 -26 8 -26 8 0 8 3 -1 9
-11 7 -10 9 3 15 18 6 12 26 -8 26 -8 0 -8 -3 1 -9z"/>
<path d="M852 6205 c-9 -19 -8 -23 1 -19 7 2 13 13 14 24 2 26 -1 25 -15 -5z"/>
<path d="M710 6190 c0 -5 3 -9 8 -7 4 1 8 -1 10 -5 6 -19 1 -27 -15 -22 -10 3
-7 -2 7 -10 20 -12 21 -15 7 -16 -10 0 -21 -8 -24 -17 -6 -14 -9 -12 -19 12
-7 17 -13 23 -14 14 0 -8 6 -24 14 -35 13 -17 15 -17 21 -2 4 10 14 15 27 13
11 -3 18 -2 14 2 -3 3 0 13 7 21 10 13 9 14 -1 8 -10 -6 -13 -3 -11 10 4 21
-7 44 -22 44 -5 0 -9 -4 -9 -10z"/>
<path d="M1480 6189 c0 -5 5 -7 10 -4 6 3 10 8 10 11 0 2 -4 4 -10 4 -5 0 -10
-5 -10 -11z"/>
<path d="M766 6155 c4 -8 8 -15 10 -15 2 0 4 7 4 15 0 8 -4 15 -10 15 -5 0 -7
-7 -4 -15z"/>
<path d="M526 6124 c-5 -14 -4 -15 9 -4 13 11 15 9 13 -10 -2 -14 3 -24 13
-25 21 -4 20 32 -1 45 -21 14 -27 12 -34 -6z m37 -19 c-3 -9 -8 -14 -10 -11
-3 3 -2 9 2 15 9 16 15 13 8 -4z"/>
<path d="M1037 6119 c7 -7 15 -10 18 -7 3 3 -2 9 -12 12 -14 6 -15 5 -6 -5z"/>
<path d="M537 6069 c7 -7 15 -10 18 -7 3 3 -2 9 -12 12 -14 6 -15 5 -6 -5z"/>
<path d="M1093 6055 c-3 -9 -3 -19 1 -22 3 -4 6 1 6 10 0 8 6 18 13 20 9 4 9
6 -1 6 -7 1 -15 -6 -19 -14z"/>
<path d="M172 6043 c-13 -26 -4 -43 24 -43 29 0 41 24 24 45 -17 20 -37 19
-48 -2z m19 -6 c-6 -8 -7 -18 -3 -22 4 -5 1 -5 -6 -1 -10 6 -10 11 -1 22 6 8
14 14 16 14 3 0 0 -6 -6 -13z m20 -20 c-10 -9 -11 -8 -5 6 3 10 9 15 12 12 3
-3 0 -11 -7 -18z"/>
<path d="M422 6048 c-17 -17 5 -53 24 -37 11 9 14 8 15 -2 0 -8 4 -5 9 6 5 14
3 24 -8 33 -20 15 -25 15 -40 0z m35 -6 c9 -6 6 -11 -8 -21 -12 -7 -18 -8 -14
-2 3 6 1 11 -5 11 -6 0 -8 5 -5 10 7 12 16 12 32 2z"/>
<path d="M1790 6040 c-9 -6 -10 -10 -3 -10 6 0 15 5 18 10 8 12 4 12 -15 0z"/>
<path d="M524 5968 l-29 -33 35 30 c19 17 37 31 39 33 2 1 0 2 -5 2 -6 0 -23
-15 -40 -32z"/>
<path d="M690 5940 c6 -11 5 -21 -1 -27 -8 -8 -7 -13 2 -18 8 -6 10 -4 4 5 -6
10 -4 12 8 7 9 -3 19 -1 23 5 4 7 3 8 -4 4 -16 -10 -15 6 1 24 9 11 8 11 -7 0
-18 -13 -19 -13 -14 1 4 9 1 16 -7 16 -10 0 -11 -5 -5 -17z"/>
<path d="M471 5926 c-14 -17 -51 -28 -51 -15 0 16 -29 10 -39 -8 -13 -25 5
-53 34 -53 16 0 26 7 30 23 4 12 17 32 28 45 11 12 18 22 15 22 -3 0 -11 -6
-17 -14z m-61 -27 c0 -6 7 -9 15 -5 21 8 19 -11 -3 -23 -22 -12 -43 4 -35 25
6 17 23 19 23 3z"/>
<path d="M308 5889 c-10 -5 -18 -17 -18 -25 0 -8 -4 -12 -10 -9 -14 9 -43 -10
-46 -28 -1 -9 10 -22 26 -29 16 -7 26 -16 23 -21 -3 -5 0 -7 8 -5 8 3 22 1 31
-4 13 -6 16 -5 12 6 -4 10 1 14 15 13 13 -1 20 -7 18 -17 -3 -21 33 -19 47 2
8 14 7 21 -8 35 -10 10 -15 12 -11 4 6 -10 2 -12 -14 -6 -13 4 -21 2 -21 -6 0
-9 -4 -8 -15 1 -19 16 -19 46 0 54 16 6 16 26 0 38 -13 10 -16 9 -37 -3z m33
-16 c11 -15 11 -16 -1 -6 -11 10 -17 10 -29 0 -14 -11 -14 -10 -2 6 7 9 15 17
16 17 1 0 9 -8 16 -17z m-36 -53 c3 -5 1 -10 -4 -10 -6 0 -11 5 -11 10 0 6 2
10 4 10 3 0 8 -4 11 -10z m25 -20 c0 -5 -8 -10 -17 -10 -15 0 -16 2 -3 10 19
12 20 12 20 0z m75 -19 c-1 -8 -7 -16 -14 -17 -7 -2 -7 0 -1 3 7 3 5 9 -5 17
-15 10 -14 12 3 12 12 0 19 -6 17 -15z"/>
<path d="M756 5876 c5 -13 1 -24 -12 -34 -10 -8 -13 -12 -5 -10 25 7 37 36 23
50 -11 11 -12 9 -6 -6z"/>
<path d="M713 5855 c0 -8 4 -12 9 -9 4 3 8 9 8 15 0 5 -4 9 -8 9 -5 0 -9 -7
-9 -15z"/>
<path d="M1054 5838 c-5 -7 -3 -8 5 -4 7 5 18 0 26 -10 8 -11 15 -14 15 -8 0
11 -20 34 -31 34 -4 0 -11 -5 -15 -12z"/>
<path d="M0 5780 c0 -11 6 -20 13 -20 8 0 7 -4 -3 -10 -13 -8 -13 -10 2 -10
22 0 35 40 17 51 -22 14 -29 11 -29 -11z"/>
<path d="M1070 5789 c0 -5 5 -7 10 -4 6 3 10 8 10 11 0 2 -4 4 -10 4 -5 0 -10
-5 -10 -11z"/>
<path d="M507 5737 c-9 -24 2 -47 23 -47 22 0 37 37 21 53 -9 9 -14 8 -20 -2
-7 -11 -9 -11 -13 0 -3 9 -6 8 -11 -4z m43 -23 c0 -2 -9 -4 -20 -4 -11 0 -20
4 -20 9 0 5 9 7 20 4 11 -3 20 -7 20 -9z"/>
<path d="M4945 5741 c-3 -5 -2 -12 3 -15 5 -3 9 1 9 9 0 17 -3 19 -12 6z"/>
<path d="M423 5700 c-14 -21 11 -43 39 -34 19 6 19 7 5 16 -10 5 -17 14 -17
20 0 7 6 6 15 -2 13 -11 14 -10 9 3 -7 20 -39 18 -51 -3z m21 -16 c3 -8 2 -12
-4 -9 -6 3 -10 10 -10 16 0 14 7 11 14 -7z"/>
<path d="M141 5682 c-25 -17 -45 -23 -73 -23 -9 0 -23 -8 -30 -17 -11 -13 -11
-14 1 -7 11 6 13 4 8 -8 -4 -11 1 -20 13 -27 29 -16 39 -12 46 18 4 15 21 39
38 54 35 30 33 36 -3 10z"/>
<path d="M2084 5678 c10 -6 22 -6 26 -2 5 5 -3 10 -18 11 -22 1 -24 0 -8 -9z"/>
<path d="M2225 5681 c-3 -5 -2 -12 3 -15 5 -3 9 1 9 9 0 17 -3 19 -12 6z"/>
<path d="M5306 4925 c2 -11 4 -26 4 -33 0 -7 5 -10 10 -7 6 4 7 11 4 17 -4 6
-2 8 4 4 18 -11 25 15 8 32 -9 9 -16 11 -16 5 0 -6 6 -14 13 -16 7 -4 6 -6 -5
-6 -9 -1 -18 5 -21 12 -2 6 -3 3 -1 -8z"/>
<path d="M5137 4867 c16 -9 20 -16 13 -27 -8 -13 -10 -12 -10 3 0 19 -15 23
-26 5 -4 -7 -3 -8 4 -4 7 4 12 1 12 -8 0 -20 14 -20 30 -1 17 20 8 38 -21 41
l-24 4 22 -13z"/>
<path d="M3127 960 c-16 -19 -16 -20 4 -20 11 0 18 4 14 9 -3 6 3 14 12 20 14
8 15 10 3 11 -9 0 -23 -9 -33 -20z"/>
<path d="M3165 960 c-11 -5 -15 -9 -10 -10 6 0 1 -8 -10 -17 -16 -13 -17 -15
-2 -10 9 4 17 2 17 -3 0 -6 4 -10 10 -10 5 0 6 7 3 17 -4 11 -3 14 5 9 7 -4
12 -1 12 8 0 9 5 16 10 16 6 0 10 -4 10 -9 0 -6 -4 -13 -10 -16 -15 -9 -12
-22 5 -22 19 0 28 26 14 43 -13 16 -25 17 -54 4z"/>
<path d="M2920 940 c-14 -27 -5 -40 25 -38 31 3 42 29 19 45 -24 18 -31 16
-44 -7z m23 -10 c-3 -11 -9 -20 -15 -20 -5 0 -4 9 2 20 6 11 12 20 14 20 2 0
2 -9 -1 -20z m27 0 c0 -5 -5 -10 -11 -10 -5 0 -7 5 -4 10 3 6 8 10 11 10 2 0
4 -4 4 -10z"/>
<path d="M3055 940 c-4 -6 -10 -8 -14 -6 -4 3 -8 -1 -8 -9 0 -8 4 -15 9 -15 5
0 7 -4 4 -9 -3 -5 1 -11 9 -14 11 -5 12 -1 6 16 -7 18 -4 24 18 34 24 11 24
11 4 12 -12 1 -25 -4 -28 -9z"/>
<path d="M3080 909 c0 -11 5 -17 10 -14 6 3 10 13 10 21 0 8 -4 14 -10 14 -5
0 -10 -9 -10 -21z"/>
<path d="M5517 916 c-14 -37 19 -64 50 -41 14 11 16 18 7 32 -14 23 -50 29
-57 9z"/>
<path d="M5648 917 c-7 -8 -20 -16 -28 -20 -11 -4 -11 -6 -2 -6 7 -1 20 -8 28
-16 17 -16 49 -21 40 -6 -4 5 0 11 6 14 10 3 10 9 2 23 -14 24 -29 28 -46 11z"/>
<path d="M2749 879 c-16 -30 -7 -39 21 -23 l25 15 -25 -5 c-24 -5 -24 -4 -6 9
10 8 22 12 27 9 12 -7 6 -42 -7 -37 -7 2 -15 0 -18 -5 -3 -5 5 -9 17 -8 16 1
23 8 25 29 2 15 0 27 -5 28 -4 0 -16 2 -26 4 -9 2 -22 -5 -28 -16z"/>
<path d="M3450 880 c-17 -11 -20 -30 -7 -47 13 -18 37 -16 37 2 0 8 5 15 10
15 7 0 7 6 0 20 -12 22 -18 24 -40 10z m30 -20 c0 -5 -7 -7 -15 -4 -8 4 -12
10 -9 15 6 11 24 2 24 -11z m-15 -20 c3 -5 2 -10 -4 -10 -5 0 -13 5 -16 10 -3
6 -2 10 4 10 5 0 13 -4 16 -10z"/>
<path d="M5732 870 c-12 -8 -7 -35 6 -33 6 2 9 -4 6 -12 -8 -20 20 -20 36 0
17 20 3 54 -21 52 -11 -1 -23 -4 -27 -7z"/>
<path d="M5840 858 c0 -4 14 -8 30 -8 17 0 30 2 30 4 0 2 -13 6 -30 8 -16 3
-30 1 -30 -4z"/>
<path d="M5370 849 c0 -5 -4 -8 -9 -5 -5 3 -8 -5 -8 -19 0 -32 35 -45 54 -19
11 15 10 20 -4 36 -18 20 -33 24 -33 7z"/>
<path d="M5472 843 c8 -10 7 -12 -5 -7 -11 4 -15 0 -13 -11 3 -24 32 -39 43
-23 11 19 12 38 2 38 -6 0 -8 4 -4 9 3 6 -3 9 -14 8 -15 -1 -17 -4 -9 -14z"/>
<path d="M5956 851 c-3 -5 -16 -7 -28 -3 -14 3 -19 2 -14 -6 4 -7 17 -12 28
-12 12 0 19 -3 15 -6 -12 -12 20 -33 42 -27 23 6 28 32 9 51 -14 14 -44 16
-52 3z"/>
<path d="M5250 839 c-13 -9 -13 -10 2 -6 11 4 15 1 13 -11 -2 -9 -4 -19 -4
-22 -1 -3 -6 2 -11 10 -8 13 -10 13 -10 -1 0 -22 36 -31 52 -12 8 10 9 20 2
31 -14 21 -26 24 -44 11z"/>
<path d="M3322 817 c-9 -10 -8 -18 4 -33 14 -18 15 -18 5 3 -8 16 -8 23 2 26
6 2 9 7 6 11 -3 4 -11 0 -17 -7z"/>
<path d="M3346 815 c-7 -20 4 -47 18 -42 10 3 11 14 7 47 -2 15 -18 12 -25 -5z
m21 -20 c0 -8 -4 -12 -9 -9 -5 3 -6 10 -3 15 9 13 12 11 12 -6z"/>
<path d="M3526 812 c24 -19 39 -52 24 -52 -6 0 -10 7 -10 15 0 8 -4 15 -9 15
-6 0 -6 -12 0 -30 6 -16 15 -30 21 -30 5 0 6 6 2 13 -5 8 -2 8 9 -2 14 -11 17
-11 17 0 0 12 2 12 9 0 5 -7 14 -10 20 -7 6 4 9 12 6 17 -4 5 -1 9 5 9 29 0
-13 36 -61 51 -50 16 -52 16 -33 1z m49 -22 c3 -5 1 -10 -4 -10 -6 0 -11 5
-11 10 0 6 2 10 4 10 3 0 8 -4 11 -10z m27 -22 c-7 -7 -12 -8 -12 -2 0 14 12
26 19 19 2 -3 -1 -11 -7 -17z"/>
<path d="M2611 799 c6 -13 6 -19 -1 -19 -5 0 -10 5 -10 12 0 6 -6 3 -14 -7 -8
-11 -13 -24 -12 -30 2 -5 1 -7 -1 -2 -3 4 -9 5 -13 2 -5 -3 -12 0 -16 6 -4 7
-3 9 3 6 6 -4 13 -1 16 7 12 30 -26 8 -42 -25 l-17 -35 28 4 c16 3 25 9 21 15
-4 7 0 8 11 4 13 -5 19 -1 23 13 4 16 8 18 20 9 11 -10 18 -8 31 6 9 10 12 15
6 11 -7 -3 -15 1 -18 10 -8 21 -8 24 5 24 5 0 7 -4 4 -10 -3 -5 -1 -10 5 -10
21 0 4 25 -18 26 -18 1 -20 -2 -11 -17z"/>
<path d="M2962 799 c-7 -11 -10 -24 -7 -29 8 -13 42 -13 50 0 4 6 -1 7 -12 4
-16 -5 -16 -4 1 10 11 9 16 16 11 16 -5 0 -17 -7 -27 -17 -20 -18 -25 -4 -6
15 6 6 10 14 7 16 -3 3 -10 -4 -17 -15z"/>
<path d="M5662 788 c-19 -19 -14 -46 10 -54 28 -9 52 20 37 47 -11 22 -30 24
-47 7z"/>
<path d="M6069 788 c-11 -8 -11 -9 2 -5 11 4 31 -9 55 -34 22 -21 46 -39 54
-39 8 0 20 -10 25 -22 6 -13 19 -23 30 -23 31 0 29 59 -2 63 -12 2 -25 12 -28
22 -8 24 -32 33 -55 20 -23 -12 -33 -13 -26 -1 9 14 -39 31 -55 19z"/>
<path d="M1168 709 c-21 -11 -23 -34 -6 -45 8 -5 9 -2 5 10 -4 10 -3 15 3 11
6 -3 10 1 10 10 0 9 5 13 10 10 8 -5 7 -11 -1 -21 -6 -8 -10 -17 -7 -19 10
-10 28 23 22 39 -7 18 -12 19 -36 5z"/>
<path d="M2459 701 c-16 -13 -34 -17 -52 -14 -16 3 -27 1 -27 -6 0 -6 -9 -11
-19 -11 -28 0 -35 -17 -14 -30 16 -10 16 -11 -3 -7 -12 2 -21 -1 -21 -8 0 -16
30 -14 40 3 4 6 13 12 19 12 6 0 5 -7 -3 -17 -13 -17 -13 -17 7 0 11 9 24 14
27 10 4 -3 7 -1 7 6 0 7 17 28 38 46 40 37 40 47 1 16z m-50 -35 c9 -11 6 -15
-19 -18 -17 -3 -34 0 -37 5 -3 6 -1 7 4 4 6 -4 16 0 23 8 15 18 15 18 29 1z"/>
<path d="M2573 683 c-3 -10 -8 -22 -11 -27 -3 -5 0 -6 6 -2 7 4 12 3 12 -3 0
-14 30 -7 40 9 10 17 -6 40 -27 40 -7 0 -16 -8 -20 -17z m39 -11 c-7 -2 -10
-8 -7 -13 4 -5 -2 -6 -11 -2 -11 4 -13 8 -6 11 7 2 10 8 7 13 -4 5 2 6 11 2
11 -4 13 -8 6 -11z"/>
<path d="M3221 676 c-9 -11 -10 -20 -1 -35 13 -25 23 -26 44 -5 19 19 20 26 4
42 -16 16 -33 15 -47 -2z m39 -26 c-6 -11 -16 -18 -21 -14 -6 3 -3 12 8 20 24
18 26 17 13 -6z"/>
<path d="M3782 678 c-18 -18 -14 -34 11 -45 19 -9 26 -8 34 6 21 34 -17 67
-45 39z m21 -15 c-5 -13 -3 -15 13 -9 14 5 16 4 8 -4 -14 -14 -44 -2 -37 16 3
8 9 14 14 14 4 0 5 -8 2 -17z"/>
<path d="M5844 674 c3 -8 2 -13 -3 -10 -15 10 -20 -22 -6 -34 30 -25 69 16 45
45 -17 20 -44 20 -36 -1z"/>
<path d="M6022 638 c-17 -17 -15 -36 7 -48 23 -12 54 12 49 39 -4 20 -39 26
-56 9z"/>
<path d="M3567 623 c-12 -14 -13 -21 -4 -33 7 -9 18 -15 25 -14 6 1 17 2 22 3
12 1 13 38 1 45 -5 3 -14 -1 -21 -9 -11 -13 -10 -15 6 -9 18 5 18 5 1 -6 -24
-15 -34 -4 -19 20 15 25 10 26 -11 3z"/>
<path d="M5344 624 c4 -10 2 -13 -6 -8 -8 5 -9 2 -5 -10 4 -10 7 -20 7 -22 0
-2 9 -4 20 -4 25 0 44 32 28 48 -18 18 -51 15 -44 -4z m38 -12 c-7 -2 -10 -7
-8 -11 3 -4 -1 -8 -9 -8 -10 0 -12 4 -5 12 5 7 7 15 3 19 -4 4 1 4 12 0 11 -5
14 -9 7 -12z"/>
<path d="M5007 618 c-23 -12 -21 -45 3 -53 27 -8 40 1 40 30 0 27 -19 37 -43
23z m18 -38 c3 -5 1 -10 -4 -10 -6 0 -11 5 -11 10 0 6 2 10 4 10 3 0 8 -4 11
-10z"/>
<path d="M2185 600 c-4 -6 -1 -26 5 -46 7 -19 9 -38 6 -41 -3 -4 -6 0 -6 8 0
9 -11 14 -32 15 -18 0 -42 4 -53 8 -20 8 -20 7 0 -8 18 -16 17 -16 -19 -14
-26 2 -41 -2 -44 -11 -3 -9 0 -11 8 -6 8 5 11 3 8 -6 -3 -8 -11 -13 -17 -11
-20 4 -92 -38 -85 -50 4 -6 1 -9 -7 -6 -8 3 -24 1 -36 -3 -14 -5 -23 -4 -25 3
-6 17 -38 2 -38 -17 0 -10 5 -13 12 -9 6 4 8 3 4 -4 -10 -16 12 -25 31 -12 17
11 17 11 1 6 -11 -3 -18 0 -18 8 0 9 7 12 20 9 24 -6 86 17 70 27 -6 4 -1 11
15 18 16 8 25 8 25 1 0 -6 5 -7 10 -4 6 4 8 11 5 16 -10 15 7 10 26 -7 17 -16
18 -15 16 19 -3 34 -2 35 22 25 41 -16 75 -16 82 1 4 11 7 10 11 -6 5 -17 2
-21 -13 -18 -11 2 -19 0 -19 -6 0 -18 37 -9 60 16 13 14 18 25 12 25 -9 0 -9
5 0 20 7 11 18 18 24 16 6 -2 16 6 23 20 12 28 9 30 -13 8 -9 -8 -16 -11 -16
-5 0 6 -4 11 -10 11 -5 0 -9 -3 -9 -7 3 -19 -2 -33 -11 -33 -5 0 -7 7 -3 16 3
9 0 20 -8 25 -9 6 -3 8 19 5 18 -2 34 0 37 3 2 4 -11 8 -30 9 -18 2 -36 -2
-40 -8z"/>
<path d="M239 593 c-1 -5 -1 -11 0 -15 0 -5 -3 -8 -9 -8 -5 0 -7 -6 -4 -14 7
-18 54 -18 61 0 3 8 0 21 -7 29 -13 16 -39 20 -41 8z"/>
<path d="M3050 577 c0 -7 6 -19 13 -26 10 -10 8 -11 -7 -5 -13 5 -17 4 -12 -4
9 -15 43 -16 51 -2 7 12 -15 44 -32 48 -7 1 -13 -4 -13 -11z"/>
<path d="M5415 540 c-6 -20 9 -50 26 -50 14 0 29 37 23 54 -9 23 -41 20 -49
-4z m30 0 c-3 -5 -12 -10 -18 -10 -7 0 -6 4 3 10 19 12 23 12 15 0z"/>
<path d="M1275 532 c-3 -9 -1 -18 4 -20 6 -2 9 -8 5 -13 -7 -12 39 -7 48 6 4
5 4 13 1 18 -3 5 -9 4 -13 -3 -6 -10 -12 -10 -26 0 -15 9 -15 10 -2 6 9 -2 18
1 21 8 3 6 -3 13 -13 13 -10 1 -21 -6 -25 -15z"/>
<path d="M3597 543 c-15 -14 -6 -25 18 -21 13 3 26 0 28 -6 2 -6 7 -8 11 -5 9
8 -21 39 -38 39 -7 0 -16 -3 -19 -7z"/>
<path d="M4829 534 c-16 -20 0 -49 27 -49 31 0 24 64 -7 65 -4 0 -12 -7 -20
-16z m31 2 c0 -2 -8 -10 -17 -17 -16 -13 -17 -12 -4 4 13 16 21 21 21 13z m10
-20 c0 -2 -8 -10 -17 -17 -16 -13 -17 -12 -4 4 13 16 21 21 21 13z"/>
<path d="M780 530 c20 -13 43 -13 35 0 -3 6 -16 10 -28 10 -18 0 -19 -2 -7
-10z"/>
<path d="M1822 518 c-15 -15 -16 -28 -1 -28 5 0 7 5 3 12 -4 7 -3 8 5 4 6 -4
9 -11 6 -16 -3 -4 1 -11 7 -14 7 -3 2 -3 -12 0 -22 4 -23 4 -6 -7 25 -16 56
13 40 38 -14 22 -27 26 -42 11z m36 -29 c-3 -8 -7 -3 -11 10 -4 17 -3 21 5 13
5 -5 8 -16 6 -23z"/>
<path d="M4658 523 c6 -2 12 -11 12 -20 0 -12 -2 -12 -16 1 -18 19 -33 13 -30
-11 3 -19 33 -24 53 -10 15 11 -1 47 -20 46 -9 0 -9 -2 1 -6z m-13 -22 c3 -5
2 -12 -3 -15 -5 -3 -9 1 -9 9 0 17 3 19 12 6z"/>
<path d="M760 507 c0 -23 33 -40 48 -25 17 17 15 25 -9 31 -16 4 -19 2 -15
-11 5 -13 3 -12 -9 2 -13 17 -15 17 -15 3z"/>
<path d="M3606 493 c9 -7 21 -10 26 -7 14 9 -1 23 -23 21 -19 -1 -19 -2 -3
-14z"/>
<path d="M6026 494 c-21 -21 -20 -41 3 -49 44 -14 72 33 32 55 -15 7 -23 6
-35 -6z"/>
<path d="M2077 487 c-7 -19 8 -43 17 -28 4 6 2 11 -4 11 -6 0 -8 5 -5 10 4 6
11 7 17 4 7 -4 8 -2 4 4 -10 16 -23 15 -29 -1z"/>
<path d="M4117 482 c-15 -16 -15 -20 -2 -38 9 -11 14 -13 13 -5 -2 7 3 16 10
18 8 3 10 -1 6 -11 -5 -12 -2 -15 10 -10 19 7 22 34 4 34 -9 0 -8 4 2 10 8 5
10 10 4 10 -6 0 -17 -7 -24 -15 -7 -8 -17 -15 -23 -15 -5 0 -2 9 8 20 10 11
16 20 13 20 -3 0 -12 -8 -21 -18z"/>
<path d="M4460 465 c-10 -12 -10 -18 0 -30 7 -8 18 -15 24 -15 6 0 5 4 -3 9
-10 7 -10 10 -1 16 7 4 16 2 20 -5 5 -8 10 -8 14 -2 8 13 -3 42 -16 42 -5 0
-6 -6 -2 -12 6 -10 5 -10 -8 0 -12 10 -18 9 -28 -3z m13 -10 c-3 -9 -8 -14
-10 -11 -3 3 -2 9 2 15 9 16 15 13 8 -4z"/>
<path d="M1226 451 c-16 -17 -16 -20 -1 -35 20 -20 29 -20 44 -2 9 11 10 20 1
35 -13 26 -22 26 -44 2z m18 -27 c5 -14 4 -15 -9 -4 -17 14 -19 20 -6 20 5 0
12 -7 15 -16z m26 6 c0 -5 -2 -10 -4 -10 -3 0 -8 5 -11 10 -3 6 -1 10 4 10 6
0 11 -4 11 -10z"/>
<path d="M4333 458 c-13 -22 -12 -37 5 -50 13 -11 14 -11 7 1 -6 11 -4 13 8 8
20 -8 30 7 22 33 -7 22 -30 26 -42 8z m37 -22 c0 -2 -9 -6 -20 -9 -11 -3 -18
-1 -14 4 5 9 34 13 34 5z"/>
<path d="M1347 453 c-10 -21 -1 -48 16 -47 9 1 17 -3 17 -9 0 -6 8 -3 18 6 16
17 16 19 0 31 -10 7 -15 16 -11 19 3 4 -3 7 -15 7 -11 0 -23 -3 -25 -7z m53
-37 c0 -2 -12 -3 -27 -3 -16 0 -22 2 -15 4 6 3 9 9 6 15 -4 6 2 5 15 -1 11 -7
21 -13 21 -15z"/>
<path d="M1407 453 c-3 -4 1 -17 9 -28 10 -13 14 -15 14 -4 0 20 -16 43 -23
32z"/>
<path d="M1503 448 c-12 -21 -12 -36 1 -47 9 -8 12 -3 10 19 -1 17 3 30 8 30
6 0 8 -6 5 -13 -3 -8 -1 -20 3 -28 7 -11 10 -10 16 4 6 17 -11 47 -27 47 -4 0
-11 -6 -16 -12z"/>
<path d="M4220 446 c6 -9 10 -21 7 -28 -4 -9 -6 -7 -6 3 -1 22 -30 33 -37 14
-9 -21 4 -35 29 -31 27 4 35 41 11 50 -14 5 -15 4 -4 -8z"/>
<path d="M144 426 c-10 -26 4 -48 28 -44 33 4 33 52 0 56 -13 2 -25 -3 -28
-12z"/>
<path d="M1686 423 c-6 -14 -9 -15 -15 -4 -6 10 -10 9 -14 -3 -4 -9 1 -24 11
-35 25 -26 25 -41 0 -69 -21 -23 -21 -25 -3 -17 11 4 25 8 32 8 7 0 9 5 6 10
-4 6 0 8 10 4 10 -3 17 -2 17 4 0 6 4 8 9 4 5 -3 13 -1 16 5 5 8 11 8 19 1 7
-6 24 -7 42 -2 29 8 29 8 5 15 -16 6 -26 4 -32 -5 -5 -8 -9 -11 -10 -6 -1 4
-3 12 -4 17 -1 6 -3 15 -4 22 -1 7 -7 5 -18 -5 -15 -13 -21 -13 -35 -3 -10 7
-15 16 -11 19 3 4 -4 4 -16 2 -14 -3 -21 0 -18 8 2 7 14 11 26 9 20 -3 21 -1
11 17 -13 25 -16 26 -24 4z m44 -78 c0 -12 -19 -12 -23 0 -4 9 -1 12 9 8 7 -3
14 -7 14 -8z m23 0 c-3 -9 -8 -14 -10 -11 -3 3 -2 9 2 15 9 16 15 13 8 -4z"/>
<path d="M2329 435 c-1 0 -3 -10 -4 -22 -3 -27 33 -43 46 -22 5 8 4 15 -1 17
-6 2 -10 8 -10 13 0 6 5 7 12 3 6 -4 8 -3 4 4 -5 8 -31 12 -47 7z m31 -36 c0
-5 -5 -9 -12 -9 -6 0 -8 3 -5 7 4 3 1 13 -6 22 -11 14 -10 14 6 2 9 -7 17 -17
17 -22z"/>
<path d="M4631 396 c-17 -21 -5 -51 20 -53 l22 -2 -22 15 c-22 16 -28 34 -10
34 5 0 7 -5 4 -10 -8 -14 24 -25 36 -13 6 6 4 14 -6 23 -8 7 -15 9 -15 4 0 -5
-4 -3 -9 4 -6 10 -10 10 -20 -2z"/>
<path d="M1795 380 c-10 -11 -13 -20 -7 -20 7 0 12 5 12 11 0 8 5 7 16 -2 22
-18 42 -20 40 -2 -2 14 -23 32 -37 33 -3 0 -14 -9 -24 -20z"/>
<path d="M5622 363 c-11 -21 -5 -46 9 -37 5 3 9 0 9 -5 0 -6 5 -11 11 -11 5 0
7 4 4 10 -3 6 1 7 9 4 12 -5 16 0 16 19 0 36 -42 51 -58 20z"/>
<path d="M2752 358 c-16 -16 -15 -33 4 -48 22 -19 54 12 38 37 -14 22 -27 26
-42 11z m13 -20 c-7 -23 -7 -23 9 -3 8 11 16 15 16 9 0 -6 -6 -17 -14 -23 -17
-14 -31 2 -22 24 9 24 18 17 11 -7z"/>
<path d="M4169 367 c-1 -1 -3 -13 -4 -26 -2 -24 -2 -24 12 -5 15 18 15 18 8
-3 -5 -17 -2 -23 9 -23 8 0 18 4 21 10 3 6 -1 7 -10 4 -11 -5 -14 -2 -9 10 3
9 11 13 16 10 6 -4 9 -1 6 6 -3 11 -45 25 -49 17z"/>
<path d="M5393 335 c-18 -20 -16 -33 6 -44 27 -15 60 11 45 36 -14 23 -36 27
-51 8z m40 -20 c-7 -21 -12 -19 -10 4 0 11 5 18 9 15 4 -3 5 -11 1 -19z"/>
<path d="M5690 315 c-6 -8 -9 -18 -7 -22 3 -5 -4 -10 -15 -10 -39 -3 -47 -37
-14 -57 14 -9 21 -6 36 12 10 12 23 22 29 22 13 0 31 41 24 53 -3 5 -12 6 -20
3 -8 -3 -11 -1 -8 4 10 16 -11 12 -25 -5z"/>
<path d="M1418 313 c13 -5 17 -24 5 -22 -5 1 -16 1 -27 0 -15 -1 -16 -4 -7
-15 15 -18 49 -17 56 2 6 17 -12 42 -29 41 -7 0 -6 -2 2 -6z m2 -33 c0 -5 -5
-10 -11 -10 -5 0 -7 5 -4 10 3 6 8 10 11 10 2 0 4 -4 4 -10z"/>
<path d="M889 290 c-5 -37 -2 -43 18 -45 22 -2 42 29 29 43 -11 11 -46 12 -47
2z"/>
<path d="M1737 261 c-6 -25 5 -40 26 -37 28 4 43 24 29 38 -20 20 -49 19 -55
-1z m39 -11 c9 0 13 -4 10 -9 -7 -10 -42 -8 -38 2 1 4 2 13 3 20 0 10 2 10 6
0 2 -7 11 -13 19 -13z"/>
<path d="M4060 245 c-24 -28 5 -57 37 -37 13 8 12 37 -2 49 -4 4 -5 3 -2 -3 4
-7 0 -15 -9 -18 -12 -4 -15 -2 -10 9 7 19 2 19 -14 0z m30 -31 c0 -2 -7 -4
-15 -4 -8 0 -15 4 -15 10 0 5 7 7 15 4 8 -4 15 -8 15 -10z"/>
<path d="M4270 235 c-11 -13 -11 -18 0 -28 10 -10 11 -9 5 3 -5 9 0 8 14 -4
16 -15 24 -17 33 -8 9 9 7 12 -7 13 -19 0 -19 1 0 9 11 5 14 9 7 9 -8 1 -10 6
-6 14 6 10 4 10 -7 0 -16 -15 -33 -17 -24 -3 10 16 -1 12 -15 -5z"/>
<path d="M1520 220 c-8 -5 -10 -10 -5 -10 6 0 17 5 25 10 8 5 11 10 5 10 -5 0
-17 -5 -25 -10z"/>
<path d="M1483 205 c0 -8 4 -12 9 -9 5 3 6 10 3 15 -9 13 -12 11 -12 -6z"/>
<path d="M6039 194 c-9 -11 -10 -20 -2 -32 16 -26 38 -25 50 1 18 40 -20 65
-48 31z"/>
<path d="M3909 197 c-1 -1 -3 -12 -4 -25 -3 -33 30 -49 46 -21 8 15 8 24 0 32
-9 9 -38 19 -42 14z m34 -20 c-2 -4 -5 -7 -8 -7 -3 0 -9 0 -15 0 -5 0 -10 4
-10 9 0 5 8 8 18 7 9 -2 16 -6 15 -9z"/>
<path d="M17 184 c-12 -12 -8 -41 8 -54 20 -17 47 5 43 34 -3 21 -37 34 -51
20z"/>
<path d="M1240 169 c-9 -16 -8 -25 5 -39 10 -11 15 -26 12 -35 -7 -17 -23 -20
-32 -5 -4 6 1 7 12 3 14 -5 15 -3 7 7 -7 7 -21 9 -32 5 -20 -6 -20 -7 -4 -24
9 -10 24 -16 32 -13 13 3 13 3 0 -7 -11 -8 -18 -7 -26 3 -6 9 -15 11 -23 6
-23 -13 24 -33 48 -20 11 5 29 10 40 10 12 0 21 4 21 9 0 5 -10 7 -22 4 -13
-3 -20 -3 -17 0 3 4 15 8 26 10 12 1 27 8 35 14 7 5 28 9 46 8 45 -2 65 32 34
57 -12 10 -16 10 -19 0 -3 -6 -9 -10 -14 -6 -5 3 -10 0 -10 -5 -3 -26 -4 -30
-11 -37 -5 -4 -8 4 -8 17 l-1 24 -14 -25 c-8 -14 -14 -19 -15 -12 0 6 -4 12
-10 12 -5 0 -7 -7 -4 -15 5 -11 2 -13 -10 -9 -12 5 -14 10 -6 19 8 10 7 16 -7
24 -10 6 -13 11 -7 11 5 0 15 -5 22 -12 9 -9 12 -9 12 0 0 7 -4 12 -10 12 -5
0 -10 7 -10 15 0 22 -28 18 -40 -6z m160 -40 c0 -5 -4 -7 -10 -4 -5 3 -10 1
-10 -6 0 -7 -3 -10 -6 -6 -8 7 4 27 17 27 5 0 9 -5 9 -11z"/>
<path d="M3687 172 c-13 -27 33 -66 49 -40 4 7 3 8 -4 4 -7 -4 -12 -2 -12 3 0
6 5 11 11 11 6 0 9 5 7 12 -5 13 -45 21 -51 10z m23 -12 c0 -5 -2 -10 -4 -10
-3 0 -8 5 -11 10 -3 6 -1 10 4 10 6 0 11 -4 11 -10z"/>
<path d="M1311 144 c0 -11 3 -14 6 -6 3 7 2 16 -1 19 -3 4 -6 -2 -5 -13z"/>
<path d="M2908 143 c15 -6 16 -33 1 -33 -5 0 -8 4 -4 9 3 6 -4 9 -15 8 -24 -2
-24 -4 -6 -22 11 -12 17 -12 31 -1 20 14 14 47 -7 45 -10 0 -10 -2 0 -6z"/>
<path d="M1053 98 c-17 -24 -10 -53 14 -54 27 -1 40 30 23 51 -15 18 -25 19
-37 3z m23 -23 c9 -8 11 -15 6 -15 -5 0 -15 7 -22 15 -7 8 -9 15 -6 15 4 0 14
-7 22 -15z"/>
<path d="M3826 94 c-21 -15 -16 -41 10 -51 17 -6 34 12 34 38 0 23 -22 30 -44
13z m34 -17 c0 -8 -3 -8 -9 2 -7 10 -10 10 -16 1 -4 -7 -1 -16 6 -21 9 -6 10
-9 2 -9 -19 0 -26 19 -13 35 13 16 30 11 30 -8z"/>
<path d="M690 75 c-15 -19 -5 -50 18 -52 10 -1 23 7 30 17 9 15 8 22 -4 35
-19 19 -28 19 -44 0z"/>
<path d="M2764 76 c-3 -9 -10 -13 -15 -10 -5 3 -9 0 -9 -5 0 -6 7 -11 15 -11
8 0 15 7 15 15 0 8 4 15 8 15 4 0 8 -9 8 -19 0 -11 -3 -19 -6 -19 -18 2 -32
-3 -27 -9 4 -3 1 -13 -6 -22 -6 -8 2 -5 20 7 36 26 49 42 34 42 -6 0 -10 5 -8
11 3 18 -22 22 -29 5z"/>
<path d="M1562 48 c-6 -6 -12 -19 -12 -27 0 -14 2 -14 9 -2 5 8 19 16 31 18
22 3 22 3 -1 -17 -20 -16 -21 -19 -7 -20 21 0 43 36 28 45 -5 3 -14 4 -19 1
-5 -4 -11 -1 -13 4 -2 7 -8 6 -16 -2z"/>
<path d="M930 31 c-12 -23 -2 -32 34 -29 28 3 33 17 14 36 -18 18 -36 15 -48
-7z m45 -1 c3 -6 -1 -7 -9 -4 -18 7 -21 14 -7 14 6 0 13 -4 16 -10z"/>
<path d="M1988 41 c11 -7 11 -9 -2 -14 -8 -3 -17 -1 -20 6 -2 7 -5 5 -5 -4 -1
-20 26 -33 33 -16 3 9 5 9 5 0 1 -7 8 -10 16 -7 11 5 12 10 2 25 -6 10 -19 19
-27 19 -12 0 -12 -2 -2 -9z"/>
</g>
</svg>
